# xmcd
#
# Track frame offsets: 
#        150
#        11342
#        26855
#        37830
#        51225
#        64270
#        75012
#        89085
#        101602
#        111727
#        123000
#        134760
#        146942
#        158452
#        173850
#        186657
#        197745
#        208717
#        219505
#        234382
#        245627
#        257785
#        269062
#
# Disc length: 3768 seconds
#
# Revision: 0
# Processed by: cddbd v1.5.2PL0 Copyright (c) Steve Scherf et al.
# Submitted via: ExactAudioCopy v1.0b3
#
DISCID=5b0eb617
DTITLE=Various Artist - Houston Jump Blues 1950's
DYEAR=1999
DGENRE=Blues
TTITLE0=Melvin Daniels with King Curtis Orchestra - Boogie In The Moon
TTITLE0=light (Lean Chick )
TTITLE1=Melvin Daniels with King Curtis Orchestra - I'll Be There
TTITLE2=Melvin Daniels with King Curtis Orchestra - Hey Hey Little Gir
TTITLE2=l
TTITLE3=Melvin Daniels with King Curtis Orchestra - If You Don't Want 
TTITLE3=My Lovin'
TTITLE4=King Curtis - unknown instrumental
TTITLE5=King Curtis - unknown instrumental
TTITLE6=Quinn Kimble - Blue Memories
TTITLE7=Quinn Kimble - Feel My Broom
TTITLE8=Lucky Enois Quartet - Zig Zag Ziggin'
TTITLE9=Lucky Enois Quartet - Crazy Man Crazy
TTITLE10=Clarence "Bon Ton" Garlow - Crawfishin'
TTITLE11=Clarence "Bon Ton" Garlow - Route "90"
TTITLE12=Connie Mack Booker - Love Me Pretty Baby
TTITLE13=Connie Mack Booker - All Alone
TTITLE14=Connie Mack Booker - Love Me Pretty Baby (alt. take)
TTITLE15=Peppermint Harris - Bye Bye Fare Thee Well
TTITLE16=Peppermint Harris - Whoopin' And Hollerin'
TTITLE17=Peppermint Harris - So Far Away
TTITLE18=Mercy Dee - True Love
TTITLE19=Mercy Dee - Come Back Maybellene
TTITLE20=King Curtis - unknown instrumental
TTITLE21=King Curtis - unknown instrumental
TTITLE22=Peppermint Harris - The Blues Ain't Nothing
EXTD=
EXTT0=
EXTT1=
EXTT2=
EXTT3=
EXTT4=
EXTT5=
EXTT6=
EXTT7=
EXTT8=
EXTT9=
EXTT10=
EXTT11=
EXTT12=
EXTT13=
EXTT14=
EXTT15=
EXTT16=
EXTT17=
EXTT18=
EXTT19=
EXTT20=
EXTT21=
EXTT22=
PLAYORDER=
